<svg width="1536" height="1536" xmlns="http://www.w3.org/2000/svg">

 <g>
  <title>background</title>
  <rect fill="none" id="canvas_background" height="1538" width="1538" y="-1" x="-1"/>
 </g>
 <g>
  <title>Layer 1</title>
  <path id="svg_1" d="m1216,831.999992l0,-128q0,-26 -19,-45t-45,-19l-256,0l0,-256q0,-26 -19,-45t-45,-19l-128,0q-26,0 -45,19t-19,45l0,256l-256,0q-26,0 -45,19t-19,45l0,128q0,26 19,45t45,19l256,0l0,256q0,26 19,45t45,19l128,0q26,0 45,-19t19,-45l0,-256l256,0q26,0 45,-19t19,-45zm320,-64q0,209 -103,385.5t-279.5,279.5t-385.5,103t-385.5,-103t-279.5,-279.5t-103,-385.5t103,-385.5t279.5,-279.5t385.5,-103t385.5,103t279.5,279.5t103,385.5z"/>
 </g>
</svg>