<?xml version="1.0" ?><!DOCTYPE svg  PUBLIC '-//W3C//DTD SVG 1.1//EN'  'http://www.w3.org/Graphics/SVG/1.1/DTD/svg11.dtd'><svg enable-background="new 0 0 48 48" height="48px" id="Layer_3" version="1.1" viewBox="0 0 48 48" width="48px" xml:space="preserve" xmlns="http://www.w3.org/2000/svg" xmlns:xlink="http://www.w3.org/1999/xlink"><path d="M24,0.125C10.814,0.125,0.125,10.814,0.125,24c0,13.187,10.689,23.875,23.875,23.875  c13.186,0,23.875-10.688,23.875-23.875C47.875,10.814,37.186,0.125,24,0.125z M23.449,14.162c0.098-0.576,0.387-1.062,0.861-1.466  c0.469-0.407,0.993-0.609,1.569-0.609c0.573,0,1.037,0.202,1.392,0.609c0.356,0.403,0.478,0.89,0.38,1.466  c-0.104,0.572-0.391,1.062-0.86,1.467c-0.473,0.403-0.998,0.605-1.57,0.605c-0.572,0-1.029-0.202-1.367-0.605  C23.515,15.225,23.378,14.734,23.449,14.162z M30.084,31.445c0,0-0.02,0.029-0.05,0.072c-0.04,0.052-0.082,0.108-0.131,0.167  c-0.551,0.695-2.374,2.772-5.146,3.804c-0.097,0.037-0.195,0.074-0.292,0.105c-0.039,0.014-0.076,0.029-0.116,0.043  c-0.004-0.002-0.006-0.004-0.01-0.004c-0.586,0.181-1.16,0.281-1.716,0.281c-1.228,0-1.843-0.562-1.843-1.685  c0-0.476,0.252-1.937,0.756-4.379l0.986-4.728l0.251-1.195l0.202-0.957c0.085-0.406,0.127-0.745,0.127-1.023  c0-0.309-0.09-0.506-0.227-0.646c-0.19-0.157-0.488-0.13-0.645-0.094c-0.337,0.089-0.721,0.247-0.872,0.312  c-1.996,0.998-3.185,2.531-3.185,2.531c-0.316-0.196-0.476-0.394-0.476-0.59c0-0.251,0.124-0.533,0.36-0.843l-0.002,0.001  l0.009-0.011c0.182-0.237,0.426-0.49,0.745-0.762c0.415-0.383,1.013-0.858,1.762-1.332c0.037-0.024,0.061-0.043,0.101-0.069  c2.766-1.823,4.633-1.682,4.633-1.682l-0.005,0.008c0.284,0.023,0.695,0.127,1.137,0.487c0.042,0.034,0.058,0.064,0.088,0.098  c0.028,0.028,0.056,0.058,0.082,0.089c0.029,0.042,0.051,0.082,0.066,0.122c0.177,0.274,0.287,0.611,0.287,1.055  c0,0.232-0.068,0.708-0.201,1.427l-0.226,1.162c-0.021,0.093-0.11,0.562-0.278,1.408l-1.035,4.969l-0.253,1.111  c-0.221,1.102-0.33,1.834-0.33,2.205c0,0.449,0.184,0.687,0.523,0.73c0.12-0.01,0.492-0.046,0.891-0.188  c0.135-0.062,0.271-0.114,0.401-0.185c0.006-0.006,0.015-0.01,0.024-0.014c1.511-0.837,2.672-2.236,2.984-2.632  c0.052-0.076,0.104-0.141,0.156-0.216c0.446,0.187,0.677,0.365,0.677,0.54c0,0.128-0.076,0.299-0.217,0.505H30.084z" fill="#241F20"/></svg>